<?xml version="1.0" standalone="no"?>
<!DOCTYPE svg PUBLIC "-//W3C//DTD SVG 20010904//EN"
 "http://www.w3.org/TR/2001/REC-SVG-20010904/DTD/svg10.dtd">
<svg version="1.0" xmlns="http://www.w3.org/2000/svg"
 width="91.000000pt" height="90.000000pt" viewBox="0 0 91.000000 90.000000"
 preserveAspectRatio="xMidYMid meet">
<metadata>
Created by potrace 1.15, written by Peter Selinger 2001-2017
</metadata>
<g transform="translate(0.000000,90.000000) scale(0.100000,-0.100000)"
fill="#000000" stroke="none">
<path d="M366 850 c-219 -56 -354 -292 -288 -506 51 -166 210 -284 382 -284
169 0 330 118 380 279 78 250 -97 504 -358 517 -42 2 -94 -1 -116 -6z m251
-167 c55 -54 73 -96 73 -171 l0 -42 -42 30 c-49 36 -79 37 -133 7 -60 -34 -59
-58 7 -100 36 -23 99 -13 139 20 31 27 39 21 12 -9 -15 -17 -15 -18 5 -18 27
0 37 -35 23 -73 -6 -15 -13 -27 -15 -27 -3 0 -3 7 0 15 5 13 1 13 -32 -1 -22
-9 -74 -17 -119 -19 -44 -1 -70 0 -57 2 13 3 26 11 29 19 6 15 -32 64 -50 64
-12 0 -46 -42 -47 -58 0 -8 -7 -6 -22 7 -11 11 -25 18 -30 15 -4 -3 -33 19
-63 48 l-55 53 -2 75 c-2 68 1 79 27 118 17 25 50 56 79 73 47 28 57 30 136
27 l85 -3 52 -52z"/>
<path d="M292 500 c-23 -17 -42 -34 -42 -38 0 -23 75 -72 110 -72 24 0 81 27
92 44 19 28 8 56 -32 76 -53 27 -80 25 -128 -10z"/>
</g>
</svg>
